<svg width="21" height="20" viewBox="0 0 21 20" fill="none" xmlns="http://www.w3.org/2000/svg">
<g clip-path="url(#clip0_420_3246)">
<path d="M20.4894 10.1871C20.4894 9.36767 20.4214 8.76973 20.2741 8.14966H10.6992V11.848H16.3194C16.2062 12.7671 15.5943 14.1512 14.2345 15.0813L14.2154 15.2051L17.2429 17.4969L17.4526 17.5174C19.3789 15.7789 20.4894 13.221 20.4894 10.1871" fill="#4285F4"/>
<path d="M10.6991 19.9314C13.4526 19.9314 15.7642 19.0456 17.4526 17.5175L14.2345 15.0814C13.3733 15.6683 12.2175 16.078 10.6991 16.078C8.0023 16.078 5.7134 14.3396 4.89747 11.9368L4.77787 11.9467L1.62991 14.3274L1.58875 14.4392C3.26576 17.6946 6.71048 19.9314 10.6991 19.9314Z" fill="#34A853"/>
<path d="M4.8976 11.9367C4.68231 11.3166 4.55771 10.6522 4.55771 9.96571C4.55771 9.27915 4.68231 8.61479 4.88627 7.99472L4.88057 7.86266L1.69316 5.44373L1.58888 5.4922C0.897698 6.84311 0.501099 8.36014 0.501099 9.96571C0.501099 11.5713 0.897698 13.0882 1.58888 14.4391L4.8976 11.9367" fill="#FBBC05"/>
<path d="M10.6991 3.85336C12.6141 3.85336 13.9058 4.66168 14.6424 5.33718L17.5205 2.59107C15.7529 0.985496 13.4526 0 10.6991 0C6.71048 0 3.26576 2.23672 1.58875 5.49214L4.88614 7.99466C5.7134 5.59183 8.0023 3.85336 10.6991 3.85336" fill="#EB4335"/>
</g>
<defs>
<clipPath id="clip0_420_3246">
<rect width="20" height="20" fill="white" transform="translate(0.5)"/>
</clipPath>
</defs>
</svg>
