<svg width="240" height="77" viewBox="0 0 240 77" fill="none" xmlns="http://www.w3.org/2000/svg">
<g filter="url(#filter0_d_420_12146)">
<path fill-rule="evenodd" clip-rule="evenodd" d="M29.9999 16.1894C22.3596 16.1894 16.166 22.383 16.166 30.0232V56.4984H16.1843C16.1722 56.616 16.166 56.7353 16.166 56.8562C16.166 58.7662 17.7144 60.3146 19.6245 60.3146C21.5345 60.3146 23.0829 58.7662 23.0829 56.8562C23.0829 56.7353 23.0768 56.616 23.0647 56.4984H23.1013C23.0892 56.616 23.083 56.7354 23.083 56.8562C23.083 58.7662 24.6314 60.3146 26.5415 60.3146C28.4443 60.3146 29.9882 58.7779 29.9999 56.8778C30.0115 58.7779 31.5554 60.3146 33.4583 60.3146C35.3683 60.3146 36.9167 58.7662 36.9167 56.8562C36.9167 56.7354 36.9106 56.616 36.8985 56.4984H36.9351C36.923 56.616 36.9168 56.7354 36.9168 56.8562C36.9168 58.7662 38.4652 60.3146 40.3753 60.3146C42.2853 60.3146 43.8338 58.7662 43.8338 56.8562C43.8338 56.7354 43.8276 56.616 43.8155 56.4984H43.8337V30.0232C43.8337 22.383 37.6401 16.1894 29.9999 16.1894ZM30.0181 56.4984H29.9817C29.993 56.609 29.9992 56.7211 29.9999 56.8345C30.0006 56.7211 30.0067 56.609 30.0181 56.4984Z" fill="url(#paint0_radial_420_12146)"/>
<circle cx="1.78886" cy="1.78886" r="1.78886" transform="matrix(1 0 0 -1 23.5598 34.3165)" fill="#262626"/>
<circle cx="1.78886" cy="1.78886" r="1.78886" transform="matrix(1 0 0 -1 32.6233 34.3165)" fill="#262626"/>
</g>
<path d="M69.817 49.7C68.1317 49.7 66.6383 49.4013 65.337 48.804C64.0357 48.2067 63.0117 47.332 62.265 46.18C61.5397 45.0067 61.177 43.588 61.177 41.924V41.124H64.601V41.924C64.601 43.5027 65.0703 44.6867 66.009 45.476C66.969 46.2653 68.2383 46.66 69.817 46.66C71.417 46.66 72.6223 46.3293 73.433 45.668C74.2437 44.9853 74.649 44.1107 74.649 43.044C74.649 42.34 74.457 41.764 74.073 41.316C73.689 40.868 73.145 40.516 72.441 40.26C71.737 39.9827 70.8943 39.7267 69.913 39.492L68.729 39.204C67.2997 38.8626 66.0517 38.4466 64.985 37.956C63.9397 37.444 63.129 36.772 62.553 35.94C61.977 35.108 61.689 34.0413 61.689 32.74C61.689 31.4173 62.009 30.2866 62.649 29.348C63.3103 28.4093 64.217 27.684 65.369 27.172C66.521 26.66 67.8757 26.404 69.433 26.404C70.9903 26.404 72.377 26.6706 73.593 27.204C74.8303 27.7373 75.801 28.5266 76.505 29.572C77.209 30.6173 77.561 31.9293 77.561 33.508V34.66H74.137V33.508C74.137 32.548 73.9343 31.7693 73.529 31.172C73.145 30.5746 72.601 30.1373 71.897 29.86C71.193 29.5826 70.3717 29.444 69.433 29.444C68.0677 29.444 67.001 29.732 66.233 30.308C65.4863 30.8626 65.113 31.6413 65.113 32.644C65.113 33.3266 65.273 33.892 65.593 34.34C65.9343 34.7666 66.425 35.1186 67.065 35.396C67.705 35.6733 68.505 35.9186 69.465 36.132L70.649 36.42C72.0997 36.74 73.3797 37.156 74.489 37.668C75.5983 38.1586 76.473 38.8306 77.113 39.684C77.753 40.5373 78.073 41.636 78.073 42.98C78.073 44.324 77.7317 45.4973 77.049 46.5C76.3877 47.5027 75.4383 48.292 74.201 48.868C72.9637 49.4227 71.5023 49.7 69.817 49.7ZM81.797 55.652V33.476H85.029V35.748H85.541C85.9463 35.044 86.5543 34.4146 87.365 33.86C88.197 33.3053 89.381 33.028 90.917 33.028C92.2397 33.028 93.445 33.348 94.533 33.988C95.6423 34.628 96.5277 35.556 97.189 36.772C97.8717 37.9666 98.213 39.4173 98.213 41.124V41.604C98.213 43.3107 97.8823 44.772 97.221 45.988C96.5597 47.1827 95.6743 48.1 94.565 48.74C93.4557 49.38 92.2397 49.7 90.917 49.7C89.893 49.7 89.029 49.572 88.325 49.316C87.621 49.06 87.0557 48.74 86.629 48.356C86.2023 47.9507 85.861 47.5347 85.605 47.108H85.093V55.652H81.797ZM89.957 46.82C91.4077 46.82 92.5917 46.3613 93.509 45.444C94.4263 44.5267 94.885 43.2147 94.885 41.508V41.22C94.885 39.5346 94.4157 38.2333 93.477 37.316C92.5597 36.3986 91.3863 35.94 89.957 35.94C88.549 35.94 87.3757 36.3986 86.437 37.316C85.5197 38.2333 85.061 39.5346 85.061 41.22V41.508C85.061 43.2147 85.5197 44.5267 86.437 45.444C87.3757 46.3613 88.549 46.82 89.957 46.82ZM109.689 49.7C108.11 49.7 106.702 49.38 105.465 48.74C104.249 48.0787 103.289 47.14 102.585 45.924C101.881 44.708 101.529 43.268 101.529 41.604V41.124C101.529 39.46 101.881 38.0306 102.585 36.836C103.289 35.62 104.249 34.6813 105.465 34.02C106.702 33.3586 108.11 33.028 109.689 33.028C111.268 33.028 112.676 33.3586 113.913 34.02C115.15 34.6813 116.121 35.62 116.825 36.836C117.529 38.0306 117.881 39.46 117.881 41.124V41.604C117.881 43.268 117.529 44.708 116.825 45.924C116.121 47.14 115.15 48.0787 113.913 48.74C112.676 49.38 111.268 49.7 109.689 49.7ZM109.689 46.756C111.14 46.756 112.313 46.2973 113.209 45.38C114.126 44.4413 114.585 43.1507 114.585 41.508V41.22C114.585 39.5773 114.137 38.2973 113.241 37.38C112.345 36.4413 111.161 35.972 109.689 35.972C108.26 35.972 107.086 36.4413 106.169 37.38C105.273 38.2973 104.825 39.5773 104.825 41.22V41.508C104.825 43.1507 105.273 44.4413 106.169 45.38C107.086 46.2973 108.26 46.756 109.689 46.756ZM129.376 49.7C127.798 49.7 126.39 49.38 125.152 48.74C123.936 48.0787 122.976 47.14 122.272 45.924C121.568 44.708 121.216 43.268 121.216 41.604V41.124C121.216 39.46 121.568 38.0306 122.272 36.836C122.976 35.62 123.936 34.6813 125.152 34.02C126.39 33.3586 127.798 33.028 129.376 33.028C130.955 33.028 132.363 33.3586 133.6 34.02C134.838 34.6813 135.808 35.62 136.512 36.836C137.216 38.0306 137.568 39.46 137.568 41.124V41.604C137.568 43.268 137.216 44.708 136.512 45.924C135.808 47.14 134.838 48.0787 133.6 48.74C132.363 49.38 130.955 49.7 129.376 49.7ZM129.376 46.756C130.827 46.756 132 46.2973 132.896 45.38C133.814 44.4413 134.272 43.1507 134.272 41.508V41.22C134.272 39.5773 133.824 38.2973 132.928 37.38C132.032 36.4413 130.848 35.972 129.376 35.972C127.947 35.972 126.774 36.4413 125.856 37.38C124.96 38.2973 124.512 39.5773 124.512 41.22V41.508C124.512 43.1507 124.96 44.4413 125.856 45.38C126.774 46.2973 127.947 46.756 129.376 46.756ZM141.672 49.252V26.852H144.968V39.62H145.48L151.688 33.476H156.072L148.104 41.124L156.328 49.252H151.976L145.48 42.692H144.968V49.252H141.672ZM159.201 49.252V26.852H165.697L170.593 46.948H171.105L176.001 26.852H182.497V49.252H179.137V29.284H178.625L173.761 49.252H167.937L163.073 29.284H162.561V49.252H159.201ZM192.162 49.7C191.031 49.7 190.018 49.508 189.122 49.124C188.247 48.74 187.543 48.1747 187.01 47.428C186.498 46.6813 186.242 45.7747 186.242 44.708C186.242 43.62 186.498 42.724 187.01 42.02C187.543 41.2946 188.258 40.7506 189.154 40.388C190.071 40.0253 191.106 39.844 192.258 39.844H197.058V38.82C197.058 37.9026 196.78 37.1666 196.226 36.612C195.671 36.0573 194.818 35.78 193.666 35.78C192.535 35.78 191.671 36.0466 191.074 36.58C190.476 37.1133 190.082 37.8066 189.89 38.66L186.818 37.668C187.074 36.8146 187.479 36.0466 188.034 35.364C188.61 34.66 189.367 34.0946 190.306 33.668C191.244 33.2413 192.375 33.028 193.698 33.028C195.746 33.028 197.356 33.5506 198.53 34.596C199.703 35.6413 200.29 37.124 200.29 39.044V45.54C200.29 46.18 200.588 46.5 201.186 46.5H202.53V49.252H200.066C199.319 49.252 198.711 49.06 198.242 48.676C197.772 48.292 197.538 47.7693 197.538 47.108V47.012H197.058C196.887 47.332 196.631 47.7053 196.29 48.132C195.948 48.5587 195.447 48.932 194.786 49.252C194.124 49.5507 193.25 49.7 192.162 49.7ZM192.642 46.98C193.964 46.98 195.031 46.6067 195.842 45.86C196.652 45.092 197.058 44.0467 197.058 42.724V42.404H192.45C191.575 42.404 190.871 42.596 190.338 42.98C189.804 43.3427 189.538 43.8867 189.538 44.612C189.538 45.3373 189.815 45.9133 190.37 46.34C190.924 46.7667 191.682 46.98 192.642 46.98ZM205.734 55.652V33.476H208.966V35.748H209.478C209.884 35.044 210.492 34.4146 211.302 33.86C212.134 33.3053 213.318 33.028 214.854 33.028C216.177 33.028 217.382 33.348 218.47 33.988C219.58 34.628 220.465 35.556 221.126 36.772C221.809 37.9666 222.15 39.4173 222.15 41.124V41.604C222.15 43.3107 221.82 44.772 221.158 45.988C220.497 47.1827 219.612 48.1 218.502 48.74C217.393 49.38 216.177 49.7 214.854 49.7C213.83 49.7 212.966 49.572 212.262 49.316C211.558 49.06 210.993 48.74 210.566 48.356C210.14 47.9507 209.798 47.5347 209.542 47.108H209.03V55.652H205.734ZM213.894 46.82C215.345 46.82 216.529 46.3613 217.446 45.444C218.364 44.5267 218.822 43.2147 218.822 41.508V41.22C218.822 39.5346 218.353 38.2333 217.414 37.316C216.497 36.3986 215.324 35.94 213.894 35.94C212.486 35.94 211.313 36.3986 210.374 37.316C209.457 38.2333 208.998 39.5346 208.998 41.22V41.508C208.998 43.2147 209.457 44.5267 210.374 45.444C211.313 46.3613 212.486 46.82 213.894 46.82Z" fill="white"/>
<defs>
<filter id="filter0_d_420_12146" x="3.99222" y="4.29224" width="52.5687" height="69.0262" filterUnits="userSpaceOnUse" color-interpolation-filters="sRGB">
<feFlood flood-opacity="0" result="BackgroundImageFix"/>
<feColorMatrix in="SourceAlpha" type="matrix" values="0 0 0 0 0 0 0 0 0 0 0 0 0 0 0 0 0 0 127 0" result="hardAlpha"/>
<feOffset dx="0.276677" dy="0.553355"/>
<feGaussianBlur stdDeviation="6.22524"/>
<feComposite in2="hardAlpha" operator="out"/>
<feColorMatrix type="matrix" values="0 0 0 0 1 0 0 0 0 1 0 0 0 0 1 0 0 0 0.32 0"/>
<feBlend mode="normal" in2="BackgroundImageFix" result="effect1_dropShadow_420_12146"/>
<feBlend mode="normal" in="SourceGraphic" in2="effect1_dropShadow_420_12146" result="shape"/>
</filter>
<radialGradient id="paint0_radial_420_12146" cx="0" cy="0" r="1" gradientUnits="userSpaceOnUse" gradientTransform="translate(29.1651 42.7838) rotate(93.2397) scale(25.323 15.8782)">
<stop stop-color="white"/>
<stop offset="1" stop-color="white" stop-opacity="0.22"/>
</radialGradient>
</defs>
</svg>
